<svg xmlns="http://www.w3.org/2000/svg" xmlns:xlink="http://www.w3.org/1999/xlink" width="500" zoomAndPan="magnify" viewBox="0 0 375 374.999991" height="500" preserveAspectRatio="xMidYMid meet" version="1.0"><defs><clipPath id="72b94c7e81"><path d="M 0 0 L 111.558594 0 L 111.558594 111.546875 L 0 111.546875 Z M 0 0 " clip-rule="nonzero"/></clipPath><clipPath id="38b756da0e"><path d="M 0 263.441406 L 111.558594 263.441406 L 111.558594 375 L 0 375 Z M 0 263.441406 " clip-rule="nonzero"/></clipPath><clipPath id="cdddb974f4"><path d="M 0 131.722656 L 111.472656 131.722656 L 111.472656 243.277344 L 0 243.277344 Z M 0 131.722656 " clip-rule="nonzero"/></clipPath><clipPath id="6d3f0ee5e5"><path d="M 131.722656 0 L 243.277344 0 L 243.277344 111.546875 L 131.722656 111.546875 Z M 131.722656 0 " clip-rule="nonzero"/></clipPath><clipPath id="1510aeb0b7"><path d="M 263.441406 0 L 375 0 L 375 111.472656 L 263.441406 111.472656 Z M 263.441406 0 " clip-rule="nonzero"/></clipPath><clipPath id="bf023d3afb"><path d="M 131.722656 131.722656 L 243.277344 131.722656 L 243.277344 243.277344 L 131.722656 243.277344 Z M 131.722656 131.722656 " clip-rule="nonzero"/></clipPath><clipPath id="26b008ee06"><path d="M 263.527344 131.722656 L 375 131.722656 L 375 243.277344 L 263.527344 243.277344 Z M 263.527344 131.722656 " clip-rule="nonzero"/></clipPath><clipPath id="500de1872d"><path d="M 131.722656 263.441406 L 243.277344 263.441406 L 243.277344 375 L 131.722656 375 Z M 131.722656 263.441406 " clip-rule="nonzero"/></clipPath><clipPath id="609271e398"><path d="M 263.441406 263.441406 L 375 263.441406 L 375 375 L 263.441406 375 Z M 263.441406 263.441406 " clip-rule="nonzero"/></clipPath></defs><g clip-path="url(#72b94c7e81)"><path fill="#000000" d="M 0 -0.0117188 L 111.558594 -0.0117188 L 111.558594 111.546875 L 0 111.546875 Z M 0 -0.0117188 " fill-opacity="1" fill-rule="nonzero"/></g><g clip-path="url(#38b756da0e)"><path fill="#000000" d="M 0 263.441406 L 111.558594 263.441406 L 111.558594 375 L 0 375 Z M 0 263.441406 " fill-opacity="1" fill-rule="nonzero"/></g><g clip-path="url(#cdddb974f4)"><path fill="#000000" d="M -0.0859375 131.722656 L 111.472656 131.722656 L 111.472656 243.277344 L -0.0859375 243.277344 Z M -0.0859375 131.722656 " fill-opacity="1" fill-rule="nonzero"/></g><g clip-path="url(#6d3f0ee5e5)"><path fill="#000000" d="M 131.722656 -0.0117188 L 243.277344 -0.0117188 L 243.277344 111.546875 L 131.722656 111.546875 Z M 131.722656 -0.0117188 " fill-opacity="1" fill-rule="nonzero"/></g><g clip-path="url(#1510aeb0b7)"><path fill="#ffffff" d="M 263.441406 -0.0859375 L 375 -0.0859375 L 375 111.472656 L 263.441406 111.472656 Z M 263.441406 -0.0859375 " fill-opacity="1" fill-rule="nonzero"/></g><g clip-path="url(#bf023d3afb)"><path fill="#ffffff" d="M 131.722656 131.722656 L 243.277344 131.722656 L 243.277344 243.277344 L 131.722656 243.277344 Z M 131.722656 131.722656 " fill-opacity="1" fill-rule="nonzero"/></g><g clip-path="url(#26b008ee06)"><path fill="#ffffff" d="M 263.527344 131.722656 L 375.085938 131.722656 L 375.085938 243.277344 L 263.527344 243.277344 Z M 263.527344 131.722656 " fill-opacity="1" fill-rule="nonzero"/></g><g clip-path="url(#500de1872d)"><path fill="#ffffff" d="M 131.722656 263.441406 L 243.277344 263.441406 L 243.277344 375 L 131.722656 375 Z M 131.722656 263.441406 " fill-opacity="1" fill-rule="nonzero"/></g><g clip-path="url(#609271e398)"><path fill="#000000" d="M 263.441406 263.441406 L 375 263.441406 L 375 375 L 263.441406 375 Z M 263.441406 263.441406 " fill-opacity="1" fill-rule="nonzero"/></g></svg>